<?xml version="1.0" encoding="UTF-8" standalone="no"?>
<!DOCTYPE svg PUBLIC "-//W3C//DTD SVG 1.1//EN" "http://www.w3.org/Graphics/SVG/1.1/DTD/svg11.dtd">
<svg xmlns="http://www.w3.org/2000/svg" version="1.1" viewBox="0 0 451 500">
<g stroke-width="2.00" fill="none" stroke-linecap="butt">
<path stroke="#4caff4" vector-effect="non-scaling-stroke" d="
  M 448.96 98.00
  Q 404.39 97.57 359.83 97.75
  C 358.33 97.75 357.04 98.06 355.54 98.25"
/>
<path stroke="#286196" vector-effect="non-scaling-stroke" d="
  M 355.54 98.25
  C 326.23 68.94 291.68 43.05 252.83 27.93
  Q 204.14 8.99 153.03 20.42"
/>
<path stroke="#427da1" vector-effect="non-scaling-stroke" d="
  M 355.54 98.25
  Q 326.25 140.62 297.22 183.17
  C 295.95 185.03 294.65 187.71 292.52 189.56"
/>
<path stroke="#33425b" stroke-opacity="0.996" vector-effect="non-scaling-stroke" d="
  M 286.70 179.18
  Q 284.04 173.67 276.96 163.80
  Q 262.28 143.33 245.41 130.01"
/>
<path stroke="#215992" vector-effect="non-scaling-stroke" d="
  M 240.31 127.91
  Q 241.05 126.72 240.34 126.18
  Q 228.59 117.20 213.81 114.37
  C 174.92 106.92 146.31 141.53 132.57 172.79
  Q 117.82 206.35 115.29 243.00"
/>
<path stroke="#255e99" vector-effect="non-scaling-stroke" d="
  M 115.29 243.00
  Q 112.62 273.78 118.96 304.00"
/>
<path stroke="#2964a1" vector-effect="non-scaling-stroke" d="
  M 118.96 304.00
  C 128.73 354.07 158.39 397.52 203.94 420.95
  C 242.39 440.74 287.73 452.02 330.75 447.77
  Q 374.76 443.42 414.75 421.22
  Q 426.32 414.80 442.17 404.64"
/>
<path stroke="#33425b" stroke-opacity="0.996" vector-effect="non-scaling-stroke" d="
  M 442.17 404.64
  C 433.47 414.65 426.51 419.74 417.21 427.96
  Q 416.56 428.53 416.75 429.04"
/>
<path stroke="#afdffa" vector-effect="non-scaling-stroke" d="
  M 442.50 113.29
  L 442.68 112.00
  Q 442.76 111.49 442.45 111.92
  C 425.75 135.11 410.71 158.20 389.54 188.60
  C 388.83 189.63 386.88 191.84 386.45 193.18
  Q 385.52 196.13 382.53 195.33
  Q 375.96 193.58 369.50 194.29"
/>
<path stroke="#84c1ef" stroke-opacity="0.992" vector-effect="non-scaling-stroke" d="
  M 369.50 194.29
  Q 365.35 193.23 361.48 194.63"
/>
<path stroke="#a5cbea" stroke-opacity="0.992" vector-effect="non-scaling-stroke" d="
  M 330.00 192.95
  Q 328.37 192.73 328.40 192.26
  A 0.43 0.24 -86.5 0 0 328.18 191.81
  L 313.31 191.23
  A 1.59 1.57 -25.1 0 1 312.43 190.92
  C 310.07 189.18 297.54 190.15 294.25 190.46"
/>
<path stroke="#2f93f7" vector-effect="non-scaling-stroke" d="
  M 188.33 269.21
  Q 186.82 270.19 185.59 269.36
  A 1.44 0.70 86.4 0 1 185.13 268.55
  Q 184.93 267.79 184.30 267.69
  A 0.69 0.57 2.0 0 1 183.74 267.19
  Q 183.17 263.15 181.19 259.61
  C 180.79 258.90 179.38 258.11 179.12 259.32
  A 0.38 0.34 -76.1 0 0 179.35 259.75
  Q 179.56 259.80 179.69 259.68
  Q 179.90 259.49 179.93 259.72
  Q 180.16 261.35 179.69 262.95
  A 0.56 0.24 47.6 0 0 179.83 263.35
  Q 179.96 263.53 179.29 263.64
  A 0.53 0.53 -4.5 0 0 178.84 264.16
  Q 178.85 267.76 177.71 271.26
  Q 177.56 271.72 177.34 271.28
  Q 176.43 269.47 176.29 271.25
  A 0.91 0.83 80.6 0 1 175.82 271.98
  C 170.15 274.77 165.62 276.05 161.33 278.43
  C 149.36 285.08 136.41 290.71 123.84 296.14
  Q 119.31 298.10 118.96 304.00"
/>
<path stroke="#2a619d" vector-effect="non-scaling-stroke" d="
  M 246.28 366.54
  C 301.81 399.92 354.98 350.09 382.82 306.99
  A 1.13 0.96 -73.8 0 1 383.58 306.49
  L 385.75 306.25"
/>
<path stroke="#8cb2ea" stroke-opacity="0.992" vector-effect="non-scaling-stroke" d="
  M 385.75 306.25
  Q 385.80 306.45 385.72 306.61
  A 0.67 0.36 -54.9 0 0 385.66 307.11
  C 387.67 310.91 391.04 314.99 392.80 317.58
  Q 396.46 322.98 400.25 328.29"
/>
<path stroke="#6aa8ee" stroke-opacity="0.992" vector-effect="non-scaling-stroke" d="
  M 400.25 328.29
  Q 404.13 335.30 409.65 341.05"
/>
<path stroke="#3e77b9" stroke-opacity="0.996" vector-effect="non-scaling-stroke" d="
  M 447.25 401.79
  L 442.17 404.64"
/>
<path stroke="#366caa" stroke-opacity="0.996" vector-effect="non-scaling-stroke" d="
  M 233.47 133.63
  Q 227.13 137.47 222.46 143.25"
/>
<path stroke="#84a7db" stroke-opacity="0.992" vector-effect="non-scaling-stroke" d="
  M 222.46 143.25
  C 201.72 162.94 189.73 193.49 186.54 221.66"
/>
<path stroke="#2788e8" vector-effect="non-scaling-stroke" d="
  M 186.54 221.66
  Q 185.35 223.89 184.01 222.55
  A 1.32 1.13 64.9 0 0 183.17 222.17
  Q 179.44 222.14 182.17 219.30
  A 1.44 0.93 11.1 0 1 183.02 218.96
  Q 183.71 218.90 184.07 218.46
  A 0.43 0.39 28.2 0 0 183.85 217.83
  Q 182.37 217.28 181.25 218.37
  A 1.06 1.01 24.9 0 1 180.42 218.65
  Q 179.07 218.49 178.54 219.62
  A 1.11 0.90 -79.9 0 1 177.87 220.20
  Q 174.16 221.06 171.38 223.72
  A 1.67 1.47 14.5 0 1 170.53 224.15
  C 167.57 224.72 166.61 227.07 164.47 227.93
  C 160.96 229.34 157.23 227.86 154.36 230.90
  Q 154.03 231.25 153.55 231.45
  C 149.42 233.14 146.95 235.09 141.52 236.39
  C 139.97 236.76 138.68 238.21 137.20 238.89
  C 133.11 240.76 128.65 245.66 124.28 245.21
  Q 123.82 245.16 124.26 244.99
  Q 125.72 244.41 123.44 244.27
  A 1.80 1.35 -51.1 0 0 122.53 244.50
  Q 120.59 245.61 118.26 245.26
  A 1.05 0.75 75.1 0 1 117.60 244.71
  Q 117.21 243.97 116.50 244.23
  A 0.38 0.37 -17.2 0 1 116.00 243.97
  Q 115.86 243.31 115.29 243.00"
/>
<path stroke="#ced6e9" stroke-opacity="0.992" vector-effect="non-scaling-stroke" d="
  M 369.00 195.46
  L 369.50 194.29"
/>
<path stroke="#88ace2" stroke-opacity="0.992" vector-effect="non-scaling-stroke" d="
  M 186.45 254.01
  Q 184.08 237.83 186.54 221.66"
/>
<path stroke="#9790a4" stroke-opacity="0.988" vector-effect="non-scaling-stroke" d="
  M 222.54 143.75
  L 222.46 143.25"
/>
</g>
<path fill="#3193e8" d="
  M 448.96 98.00
  Q 404.39 97.57 359.83 97.75
  C 358.33 97.75 357.04 98.06 355.54 98.25
  C 326.23 68.94 291.68 43.05 252.83 27.93
  Q 204.14 8.99 153.03 20.42
  Q 158.96 17.12 167.25 14.75
  C 190.57 8.08 206.14 3.14 227.82 2.49
  Q 254.19 1.70 280.56 2.66
  C 285.10 2.82 291.32 3.54 296.36 4.55
  C 354.19 16.14 405.91 50.32 446.57 92.69
  Q 448.91 95.12 448.96 98.00
  Z"
/>
<path fill="#1e2f43" d="
  M 355.54 98.25
  Q 326.25 140.62 297.22 183.17
  C 295.95 185.03 294.65 187.71 292.52 189.56
  L 286.70 179.18
  Q 284.04 173.67 276.96 163.80
  Q 262.28 143.33 245.41 130.01
  Q 242.95 128.28 240.31 127.91
  Q 241.05 126.72 240.34 126.18
  Q 228.59 117.20 213.81 114.37
  C 174.92 106.92 146.31 141.53 132.57 172.79
  Q 117.82 206.35 115.29 243.00
  Q 112.62 273.78 118.96 304.00
  C 128.73 354.07 158.39 397.52 203.94 420.95
  C 242.39 440.74 287.73 452.02 330.75 447.77
  Q 374.76 443.42 414.75 421.22
  Q 426.32 414.80 442.17 404.64
  C 433.47 414.65 426.51 419.74 417.21 427.96
  Q 416.56 428.53 416.75 429.04
  Q 382.31 457.68 342.06 477.01
  C 313.49 490.73 281.42 497.81 249.74 498.97
  C 237.86 499.40 218.90 498.61 205.50 496.67
  C 99.83 481.36 19.86 386.28 3.41 283.92
  Q 2.31 277.04 2.06 267.51
  C 1.63 250.54 1.16 231.71 2.43 217.69
  C 3.62 204.70 7.46 189.90 12.05 176.69
  C 24.96 139.50 44.46 103.46 70.79 74.05
  Q 100.76 40.59 143.69 23.75
  Q 150.56 21.05 153.03 20.42
  Q 204.14 8.99 252.83 27.93
  C 291.68 43.05 326.23 68.94 355.54 98.25
  Z"
/>
<path fill="#66cbff" d="
  M 448.96 98.00
  C 449.24 104.20 446.63 107.55 442.50 113.29
  L 442.68 112.00
  Q 442.76 111.49 442.45 111.92
  C 425.75 135.11 410.71 158.20 389.54 188.60
  C 388.83 189.63 386.88 191.84 386.45 193.18
  Q 385.52 196.13 382.53 195.33
  Q 375.96 193.58 369.50 194.29
  Q 365.35 193.23 361.48 194.63
  L 330.00 192.95
  Q 328.37 192.73 328.40 192.26
  A 0.43 0.24 -86.5 0 0 328.18 191.81
  L 313.31 191.23
  A 1.59 1.57 -25.1 0 1 312.43 190.92
  C 310.07 189.18 297.54 190.15 294.25 190.46
  Q 292.83 190.71 292.52 189.56
  C 294.65 187.71 295.95 185.03 297.22 183.17
  Q 326.25 140.62 355.54 98.25
  C 357.04 98.06 358.33 97.75 359.83 97.75
  Q 404.39 97.57 448.96 98.00
  Z"
/>
<path fill="#f9f4f4" fill-opacity="0.996" d="
  M 442.50 113.29
  Q 434.49 124.68 426.93 136.38
  C 417.69 150.68 409.44 162.69 400.42 175.67
  Q 393.48 185.65 387.27 196.09
  A 0.87 0.79 -71.8 0 1 386.51 196.52
  L 369.00 195.46
  L 369.50 194.29
  Q 375.96 193.58 382.53 195.33
  Q 385.52 196.13 386.45 193.18
  C 386.88 191.84 388.83 189.63 389.54 188.60
  C 410.71 158.20 425.75 135.11 442.45 111.92
  Q 442.76 111.49 442.68 112.00
  L 442.50 113.29
  Z"
/>
<path fill="#2382e0" d="
  M 240.31 127.91
  L 233.47 133.63
  Q 227.13 137.47 222.46 143.25
  C 201.72 162.94 189.73 193.49 186.54 221.66
  Q 185.35 223.89 184.01 222.55
  A 1.32 1.13 64.9 0 0 183.17 222.17
  Q 179.44 222.14 182.17 219.30
  A 1.44 0.93 11.1 0 1 183.02 218.96
  Q 183.71 218.90 184.07 218.46
  A 0.43 0.39 28.2 0 0 183.85 217.83
  Q 182.37 217.28 181.25 218.37
  A 1.06 1.01 24.9 0 1 180.42 218.65
  Q 179.07 218.49 178.54 219.62
  A 1.11 0.90 -79.9 0 1 177.87 220.20
  Q 174.16 221.06 171.38 223.72
  A 1.67 1.47 14.5 0 1 170.53 224.15
  C 167.57 224.72 166.61 227.07 164.47 227.93
  C 160.96 229.34 157.23 227.86 154.36 230.90
  Q 154.03 231.25 153.55 231.45
  C 149.42 233.14 146.95 235.09 141.52 236.39
  C 139.97 236.76 138.68 238.21 137.20 238.89
  C 133.11 240.76 128.65 245.66 124.28 245.21
  Q 123.82 245.16 124.26 244.99
  Q 125.72 244.41 123.44 244.27
  A 1.80 1.35 -51.1 0 0 122.53 244.50
  Q 120.59 245.61 118.26 245.26
  A 1.05 0.75 75.1 0 1 117.60 244.71
  Q 117.21 243.97 116.50 244.23
  A 0.38 0.37 -17.2 0 1 116.00 243.97
  Q 115.86 243.31 115.29 243.00
  Q 117.82 206.35 132.57 172.79
  C 146.31 141.53 174.92 106.92 213.81 114.37
  Q 228.59 117.20 240.34 126.18
  Q 241.05 126.72 240.31 127.91
  Z"
/>
<path fill="#495574" fill-opacity="0.992" d="
  M 286.70 179.18
  Q 277.36 165.51 271.69 158.06
  Q 260.58 143.49 245.41 130.01
  Q 262.28 143.33 276.96 163.80
  Q 284.04 173.67 286.70 179.18
  Z"
/>
<path fill="#495574" fill-opacity="0.992" d="
  M 233.47 133.63
  L 222.54 143.75
  L 222.46 143.25
  Q 227.13 137.47 233.47 133.63
  Z"
/>
<path fill="#e6ccd5" fill-opacity="0.984" d="
  M 222.46 143.25
  L 222.54 143.75
  Q 218.28 149.23 213.74 154.49
  Q 211.56 157.02 203.66 170.94
  C 202.58 172.85 201.82 175.51 200.83 177.63
  Q 200.17 179.04 199.18 182.04
  C 198.49 184.12 197.11 185.99 196.45 187.79
  C 188.62 209.07 186.61 231.49 186.45 254.01
  Q 184.08 237.83 186.54 221.66
  C 189.73 193.49 201.72 162.94 222.46 143.25
  Z"
/>
<path fill="#e6ccd5" fill-opacity="0.984" d="
  M 330.00 192.95
  C 323.05 192.69 315.93 192.75 309.05 191.68
  C 306.79 191.33 304.54 191.63 302.33 191.23
  Q 298.32 190.51 294.25 190.46
  C 297.54 190.15 310.07 189.18 312.43 190.92
  A 1.59 1.57 -25.1 0 0 313.31 191.23
  L 328.18 191.81
  A 0.43 0.24 -86.5 0 1 328.40 192.26
  Q 328.37 192.73 330.00 192.95
  Z"
/>
<path fill="#a2b7de" fill-opacity="0.984" d="
  M 369.50 194.29
  L 369.00 195.46
  L 361.48 194.63
  Q 365.35 193.23 369.50 194.29
  Z"
/>
<path fill="#2b8def" d="
  M 186.54 221.66
  Q 184.08 237.83 186.45 254.01
  L 188.33 269.21
  Q 186.82 270.19 185.59 269.36
  A 1.44 0.70 86.4 0 1 185.13 268.55
  Q 184.93 267.79 184.30 267.69
  A 0.69 0.57 2.0 0 1 183.74 267.19
  Q 183.17 263.15 181.19 259.61
  C 180.79 258.90 179.38 258.11 179.12 259.32
  A 0.38 0.34 -76.1 0 0 179.35 259.75
  Q 179.56 259.80 179.69 259.68
  Q 179.90 259.49 179.93 259.72
  Q 180.16 261.35 179.69 262.95
  A 0.56 0.24 47.6 0 0 179.83 263.35
  Q 179.96 263.53 179.29 263.64
  A 0.53 0.53 -4.5 0 0 178.84 264.16
  Q 178.85 267.76 177.71 271.26
  Q 177.56 271.72 177.34 271.28
  Q 176.43 269.47 176.29 271.25
  A 0.91 0.83 80.6 0 1 175.82 271.98
  C 170.15 274.77 165.62 276.05 161.33 278.43
  C 149.36 285.08 136.41 290.71 123.84 296.14
  Q 119.31 298.10 118.96 304.00
  Q 112.62 273.78 115.29 243.00
  Q 115.86 243.31 116.00 243.97
  A 0.38 0.37 -17.2 0 0 116.50 244.23
  Q 117.21 243.97 117.60 244.71
  A 1.05 0.75 75.1 0 0 118.26 245.26
  Q 120.59 245.61 122.53 244.50
  A 1.80 1.35 -51.1 0 1 123.44 244.27
  Q 125.72 244.41 124.26 244.99
  Q 123.82 245.16 124.28 245.21
  C 128.65 245.66 133.11 240.76 137.20 238.89
  C 138.68 238.21 139.97 236.76 141.52 236.39
  C 146.95 235.09 149.42 233.14 153.55 231.45
  Q 154.03 231.25 154.36 230.90
  C 157.23 227.86 160.96 229.34 164.47 227.93
  C 166.61 227.07 167.57 224.72 170.53 224.15
  A 1.67 1.47 14.5 0 0 171.38 223.72
  Q 174.16 221.06 177.87 220.20
  A 1.11 0.90 -79.9 0 0 178.54 219.62
  Q 179.07 218.49 180.42 218.65
  A 1.06 1.01 24.9 0 0 181.25 218.37
  Q 182.37 217.28 183.85 217.83
  A 0.43 0.39 28.2 0 1 184.07 218.46
  Q 183.71 218.90 183.02 218.96
  A 1.44 0.93 11.1 0 0 182.17 219.30
  Q 179.44 222.14 183.17 222.17
  A 1.32 1.13 64.9 0 1 184.01 222.55
  Q 185.35 223.89 186.54 221.66
  Z"
/>
<path fill="#3399fe" d="
  M 188.33 269.21
  C 194.44 307.30 212.74 345.33 246.28 366.54
  C 301.81 399.92 354.98 350.09 382.82 306.99
  A 1.13 0.96 -73.8 0 1 383.58 306.49
  L 385.75 306.25
  Q 385.80 306.45 385.72 306.61
  A 0.67 0.36 -54.9 0 0 385.66 307.11
  C 387.67 310.91 391.04 314.99 392.80 317.58
  Q 396.46 322.98 400.25 328.29
  Q 404.13 335.30 409.65 341.05
  Q 428.35 368.51 446.81 396.19
  Q 448.76 399.11 447.25 401.79
  L 442.17 404.64
  Q 426.32 414.80 414.75 421.22
  Q 374.76 443.42 330.75 447.77
  C 287.73 452.02 242.39 440.74 203.94 420.95
  C 158.39 397.52 128.73 354.07 118.96 304.00
  Q 119.31 298.10 123.84 296.14
  C 136.41 290.71 149.36 285.08 161.33 278.43
  C 165.62 276.05 170.15 274.77 175.82 271.98
  A 0.91 0.83 80.6 0 0 176.29 271.25
  Q 176.43 269.47 177.34 271.28
  Q 177.56 271.72 177.71 271.26
  Q 178.85 267.76 178.84 264.16
  A 0.53 0.53 -4.5 0 1 179.29 263.64
  Q 179.96 263.53 179.83 263.35
  A 0.56 0.24 47.6 0 1 179.69 262.95
  Q 180.16 261.35 179.93 259.72
  Q 179.90 259.49 179.69 259.68
  Q 179.56 259.80 179.35 259.75
  A 0.38 0.34 -76.1 0 1 179.12 259.32
  C 179.38 258.11 180.79 258.90 181.19 259.61
  Q 183.17 263.15 183.74 267.19
  A 0.69 0.57 2.0 0 0 184.30 267.69
  Q 184.93 267.79 185.13 268.55
  A 1.44 0.70 86.4 0 0 185.59 269.36
  Q 186.82 270.19 188.33 269.21
  Z"
/>
<path fill="#21293c" d="
  M 385.75 306.25
  L 383.58 306.49
  A 1.13 0.96 -73.8 0 0 382.82 306.99
  C 354.98 350.09 301.81 399.92 246.28 366.54
  Q 262.48 354.48 272.67 340.93
  Q 285.08 324.44 292.62 305.78
  A 1.23 1.21 10.4 0 1 293.74 305.02
  C 323.53 304.89 353.32 305.92 383.25 304.97
  Q 384.76 304.92 385.75 306.25
  Z"
/>
<path fill="#e6ccd5" fill-opacity="0.984" d="
  M 385.75 306.25
  Q 386.91 307.10 387.73 308.28
  Q 394.34 317.84 400.79 327.50
  L 400.25 328.29
  Q 396.46 322.98 392.80 317.58
  C 391.04 314.99 387.67 310.91 385.66 307.11
  A 0.67 0.36 -54.9 0 1 385.72 306.61
  Q 385.80 306.45 385.75 306.25
  Z"
/>
<path fill="#a2b7de" fill-opacity="0.984" d="
  M 400.79 327.50
  L 409.65 341.05
  Q 404.13 335.30 400.25 328.29
  L 400.79 327.50
  Z"
/>
<path fill="#495574" fill-opacity="0.992" d="
  M 447.25 401.79
  Q 439.07 410.53 429.78 418.04
  C 425.72 421.34 421.38 425.68 416.75 429.04
  Q 416.56 428.53 417.21 427.96
  C 426.51 419.74 433.47 414.65 442.17 404.64
  L 447.25 401.79
  Z"
/>
</svg>
